<svg id="Capa_1" enable-background="new 0 0 512 512" height="512" viewBox="0 0 512 512" width="512" xmlns="http://www.w3.org/2000/svg"><g><g><path d="m115.433 68.24h112.03v408.69h-131.2c-60.96 0-45.05-44.36-26.11-78.28s0-121.55 0-121.55c-14.95-72.99-38.77-191.49 45.28-208.86z" fill="#454045"/><path d="m415.723 476.93h-136.39v-408.69h117.22c84.05 17.37 60.23 135.87 45.28 208.86 0 0-18.94 87.63 0 121.55s34.85 78.28-26.11 78.28z" fill="#665e66"/><path d="m416.791 287.421h.225c19.336 0 35.004-15.681 35.004-35.004 0-19.336-15.668-35.018-35.004-35.018-.252 0-.503 0-.755.013h-320.535c-.252-.013-.503-.013-.755-.013-19.336 0-35.004 15.681-35.004 35.018 0 19.323 15.668 35.004 35.004 35.004h.225" fill="#528ecb"/><path d="m416.789 504.5h-321.59c.24-9.19.6-18.38 1.07-27.57 2.36-46.09 39.24-82.77 85.35-84.95 49.58-2.34 99.17-2.34 148.76 0 46.1 2.18 82.98 38.86 85.34 84.95.47 9.19.83 18.38 1.07 27.57z" fill="#6bbef6"/><path d="m255.999 390.22c-15.33 0-30.66.59-45.99 1.76-28.52 2.18-51.32 38.86-52.78 84.95-.29 9.19-.52 18.38-.66 27.57h-61.37c.24-9.19.6-18.38 1.07-27.57 2.36-46.09 39.24-82.77 85.35-84.95 24.79-1.17 49.58-1.76 74.38-1.76z" fill="#528ecb"/><path d="m255.994 477.496c-33.016 0-64.291-6.83-88.063-19.233-26.868-14.018-41.664-33.771-41.664-55.623s14.796-41.606 41.664-55.624c23.772-12.402 55.046-19.232 88.063-19.232s64.291 6.83 88.063 19.232c26.868 14.018 41.664 33.772 41.664 55.624s-14.796 41.605-41.664 55.623c-23.772 12.403-55.047 19.233-88.063 19.233zm0-119.712c-28.273 0-54.619 5.622-74.186 15.83-16.232 8.469-25.541 19.048-25.541 29.026s9.31 20.557 25.541 29.025c19.566 10.208 45.913 15.831 74.186 15.831s54.619-5.622 74.186-15.831c16.231-8.468 25.541-19.048 25.541-29.025 0-9.978-9.309-20.557-25.541-29.026-19.567-10.208-45.913-15.83-74.186-15.83z" fill="#f6e266"/><path d="m413.439 171.185c4 48.248 4.763 96.499 2.287 144.745-2.36 46.09-39.25 82.78-85.34 84.95-24.8 1.17-49.6 1.76-74.39 1.76s-49.59-.59-74.39-1.76c-46.09-2.17-82.98-38.86-85.34-84.95-2.407-46.884-1.753-93.773 1.956-140.659" fill="#6bbef6"/><path d="m211.943 402.02c-10.11-.28-20.23-.66-30.34-1.14-46.09-2.17-82.98-38.86-85.34-84.95-2.37-46.25-1.77-92.5 1.81-138.75h65.52c-2.09 46.46-2.44 92.93-1.05 139.39 1.37 46.09 22.68 82.82 49.4 85.45z" fill="#528ecb"/><path d="m155.37 40.298c-23.468 0-42.493 19.025-42.493 42.493v78.426h84.986v-78.426c0-23.468-19.024-42.493-42.493-42.493z" fill="#f6e266"/><path d="m167.837 42.161c-17.38 5.32-30.02 21.5-30.02 40.63v78.43h-24.94v-78.43c0-23.47 19.02-42.49 42.49-42.49 4.34 0 8.52.65 12.47 1.86z" fill="#eab14d"/><path d="m354.086 40.298c-23.468 0-42.493 19.025-42.493 42.493v78.426h84.986v-78.426c0-23.468-19.025-42.493-42.493-42.493z" fill="#f6e266"/><path d="m366.552 42.161c-17.38 5.32-30.02 21.5-30.02 40.63v78.43h-24.94v-78.43c0-23.47 19.02-42.49 42.49-42.49 4.34 0 8.52.65 12.47 1.86z" fill="#eab14d"/><g fill="#528ecb"><ellipse cx="156.232" cy="292.435" rx="27.268" ry="17.292"/><ellipse cx="355.756" cy="292.435" rx="27.268" ry="17.292"/></g><path d="m311.592 124.637v-60.273c0-31.405-25.459-56.864-56.864-56.864-31.405 0-56.865 25.459-56.865 56.865v60.273l-92.78 21.703c-12.271 2.87-20.949 13.813-20.949 26.415v27.369h341.187v-27.369c0-12.602-8.678-23.545-20.949-26.415z" fill="#f6e266"/><circle cx="254.728" cy="210.565" fill="#da4a54" r="17.092"/><path d="m254.724 7.504c-9.46 0-18.02 6.36-24.22 16.66-6.2 10.28-10.03 24.5-10.03 40.2v60.28l-55.89 21.7c-7.39 2.87-12.62 13.81-12.62 26.42v27.36h-67.83v-27.36c0-12.61 8.67-23.55 20.95-26.42l92.78-21.7v-60.28c0-15.7 6.36-29.92 16.65-40.2 10.29-10.3 24.51-16.66 40.21-16.66z" fill="#eab14d"/><g fill="#da4a54"><circle cx="254.728" cy="121.229" r="28.675"/><circle cx="254.728" cy="55.601" r="17.092"/><circle cx="255.994" cy="475.998" r="28.502"/></g></g><g><path d="m255.994 327.256c16.805 0 32.321-9.813 39.528-24.998 1.776-3.742.183-8.215-3.56-9.991-3.742-1.777-8.216-.182-9.991 3.56-4.737 9.98-14.934 16.43-25.978 16.43s-21.24-6.449-25.978-16.43c-1.776-3.742-6.248-5.336-9.991-3.56-3.742 1.776-5.336 6.249-3.56 9.991 7.208 15.186 22.724 24.998 39.53 24.998z"/><path d="m317.743 273.487c1.281 0 2.581-.331 3.769-1.027.034-.019 3.408-1.91 9.211-3.286 7.707-1.828 15.847-1.939 24.199-.331 4.065.783 8-1.878 8.783-5.946.783-4.067-1.879-8-5.946-8.783-5.585-1.076-10.77-1.451-15.478-1.376 1.72-3.553 2.738-7.91 2.738-12.618 0-11.915-6.5-21.608-14.489-21.608s-14.489 9.693-14.489 21.608c0 6.496 1.935 12.327 4.986 16.291-4.3 1.502-6.79 2.926-7.055 3.081-3.573 2.095-4.795 6.704-2.7 10.277 1.397 2.386 3.899 3.718 6.471 3.718z"/><path d="m157.067 268.844c8.351-1.609 16.492-1.497 24.199.331 5.708 1.354 9.066 3.205 9.207 3.283 1.181.682 2.471 1.006 3.744 1.006 2.574 0 5.081-1.327 6.477-3.708 2.095-3.573.896-8.168-2.677-10.263-.265-.155-2.754-1.579-7.055-3.081 3.052-3.965 4.986-9.795 4.986-16.291 0-11.915-6.5-21.608-14.489-21.608s-14.489 9.693-14.489 21.608c0 4.707 1.018 9.065 2.738 12.618-4.707-.075-9.893.3-15.478 1.376-4.067.784-6.729 4.716-5.946 8.783s4.716 6.728 8.783 5.946z"/><path d="m254.728 157.404c19.947 0 36.175-16.228 36.175-36.175s-16.228-36.175-36.175-36.175-36.175 16.228-36.175 36.175 16.228 36.175 36.175 36.175zm0-57.35c11.676 0 21.175 9.499 21.175 21.175s-9.499 21.175-21.175 21.175-21.175-9.499-21.175-21.175 9.499-21.175 21.175-21.175z"/><path d="m254.728 80.193c13.56 0 24.592-11.032 24.592-24.592s-11.032-24.592-24.592-24.592-24.592 11.032-24.592 24.592 11.032 24.592 24.592 24.592zm0-34.184c5.289 0 9.592 4.303 9.592 9.592s-4.303 9.592-9.592 9.592-9.592-4.303-9.592-9.592 4.303-9.592 9.592-9.592z"/><path d="m448.381 394.994c-14.009-25.089-4.831-89.177.367-114.339 6.694-7.514 10.772-17.406 10.772-28.238 0-5.043-.887-9.881-2.505-14.374 11.912-68.664 18.193-160.285-57.833-176.897-3.354-6.986-8.343-13.181-14.744-18.074-3.29-2.516-7.998-1.888-10.513 1.403-2.516 3.291-1.888 7.998 1.403 10.513 8.741 6.683 13.755 16.816 13.755 27.802v52.271l-69.99-16.372v-35.899c0-18.553 14.49-33.896 32.989-34.932 4.136-.231 7.301-3.771 7.069-7.907s-3.775-7.301-7.907-7.069c-13.498.755-25.494 6.846-34.012 16.147-6.899-28.109-32.298-49.029-62.504-49.029-30.213 0-55.616 20.929-62.508 49.047-9.145-9.979-22.277-16.247-36.847-16.247-20.07 0-37.405 11.889-45.357 28.988-73.092 18.223-66.81 108.442-55.045 176.259-1.617 4.491-2.504 9.328-2.504 14.37 0 10.823 4.072 20.708 10.756 28.219 2.256 11.25 12.983 68.517 4.859 102.185-.972 4.026 1.505 8.079 5.531 9.05.591.143 1.183.211 1.766.211 3.384 0 6.456-2.308 7.284-5.743 6.915-28.655 1.786-70.689-2.041-93.917 2.336.841 4.768 1.476 7.272 1.898.227 7.343.503 14.679.878 21.993 1.399 27.326 13.87 51.5 33.036 68.235-2.02 5.873-3.046 11.935-3.046 18.092 0 2.703.205 5.373.587 8.007-16.425 15.415-27.051 36.259-29.918 58.562-13.354-.878-22.11-4.459-26.046-10.691-5.221-8.268-2.929-23.253 6.629-43.335 1.78-3.74.191-8.215-3.549-9.995-3.742-1.782-8.215-.191-9.995 3.549-12.222 25.68-14.108 44.583-5.768 57.791 6.602 10.454 19.273 16.368 37.707 17.637-.302 6.783-.542 13.53-.715 20.139-.053 2.022.714 3.98 2.125 5.43 1.412 1.449 3.349 2.266 5.372 2.266h321.59c2.023 0 3.96-.817 5.372-2.267 1.412-1.449 2.178-3.407 2.125-5.429-.173-6.609-.414-13.357-.715-20.141 18.935-1.302 31.784-7.496 38.231-18.478 11.971-20.393-1.922-50.111-13.413-70.691zm-24.316-169.175c11.761 3.123 20.456 13.862 20.456 26.598 0 12.587-8.502 23.218-20.062 26.473.295-17.693.169-35.414-.394-53.071zm-20.229-147.861c23.235 7.808 37.272 26.213 42.778 56.01 5.034 27.239 2.073 59.781-1.894 86.243-5.905-5.089-13.211-8.595-21.26-9.824-.043-.922-.092-1.842-.137-2.763h1.999c4.142 0 7.5-3.358 7.5-7.5v-27.369c0-16.169-10.996-30.035-26.74-33.718l-1.999-.468v-55.779c0-1.627-.096-3.236-.247-4.832zm-198.473-13.593c0-27.22 22.145-49.365 49.365-49.365s49.364 22.145 49.364 49.365v60.273c0 3.484 2.399 6.509 5.792 7.303l92.78 21.703c8.924 2.087 15.157 9.947 15.157 19.112v19.869h-149.348c-.011 0-.023 0-.034 0h-27.437c-.01 0-.02 0-.03 0h-149.338v-19.869c0-9.165 6.233-17.024 15.158-19.112l92.779-21.703c3.393-.794 5.792-3.819 5.792-7.303zm58.96 146.205c0 5.288-4.302 9.59-9.59 9.59-5.293 0-9.6-4.302-9.6-9.59 0-1.017.161-2.006.463-2.946h18.259c.306.942.468 1.93.468 2.946zm-108.95-162.77c19.293 0 34.99 15.697 34.99 34.99v35.899l-69.99 16.372v-52.271c0-19.293 15.701-34.99 35-34.99zm-90.001 86.168c5.297-28.664 18.488-46.785 40.167-55.073-.1 1.287-.166 2.583-.166 3.895v55.78l-1.997.467c-15.745 3.683-26.741 17.548-26.741 33.718v27.369c0 4.142 3.358 7.5 7.5 7.5h4.528c-.045.921-.094 1.841-.137 2.763-8.049 1.23-15.355 4.736-21.26 9.826-3.967-26.463-6.928-59.006-1.894-86.245zm2.095 118.449c0-12.735 8.693-23.474 20.454-26.597-.563 17.657-.689 35.378-.394 53.069-11.56-3.256-20.06-13.887-20.06-26.472zm36.286 63.129c-1.838-35.827-1.845-72.093-.072-107.922h126.645c-.115.971-.193 1.951-.193 2.946 0 13.559 11.036 24.59 24.6 24.59 13.559 0 24.59-11.031 24.59-24.59 0-.994-.079-1.974-.194-2.946h129.176c1.773 35.829 1.766 72.095-.072 107.923-2.17 42.38-35.79 75.844-78.203 77.841-24.643 1.163-49.552 1.752-74.037 1.752s-49.394-.589-74.038-1.752c-42.413-1.997-76.032-35.461-78.202-77.842zm274.47 87.094c0 3.07-.348 6.122-1.037 9.078-3.584 15.476-16.241 29.271-36.605 39.894-14.015 7.321-31.062 12.681-49.66 15.657-1.312-5.249-3.776-10.046-7.111-14.102 18.74-2.516 35.882-7.571 49.843-14.848 19.069-9.951 29.57-22.622 29.57-35.679 0-.471-.035-.945-.063-1.418 4.928-2.013 9.654-4.405 14.13-7.162.617 2.826.933 5.692.933 8.58zm-196.974 5.732c24.877 1.173 50.024 1.769 74.744 1.769s49.866-.595 74.743-1.769c5.764-.271 11.383-1.056 16.832-2.271-2.164 6.154-9.732 13.116-20.851 18.918-18.511 9.648-43.587 14.966-70.619 14.98-.035 0-.069-.003-.103-.003-.035 0-.069.002-.104.003-27.036-.014-52.109-5.331-70.609-14.979-11.126-5.803-18.698-12.764-20.863-18.919 5.448 1.214 11.066 1.999 16.83 2.271zm53.743 67.626c0-11.56 9.388-20.965 20.94-20.999.02 0 .04.001.061.001s.042-.001.063-.001c11.552.034 20.94 9.439 20.94 20.999 0 11.581-9.421 21.002-21.002 21.002s-21.002-9.421-21.002-21.002zm-86.163-74.775c-.028.473-.067.946-.067 1.417 0 13.06 10.506 25.731 29.582 35.68 13.953 7.276 31.093 12.332 49.834 14.848-3.336 4.056-5.799 8.853-7.111 14.102-18.602-2.977-35.65-8.338-49.668-15.66-24.271-12.654-37.637-30.045-37.637-48.969 0-2.888.316-5.754.933-8.58 4.478 2.756 9.205 5.149 14.134 7.162zm-45.076 76.09c.968-18.948 8.207-36.448 20.596-50.323 7.077 14.787 20.73 27.813 40.112 37.918 15.901 8.306 35.197 14.293 56.107 17.458.966 5.387 3.131 10.359 6.213 14.634h-123.862c.217-6.499.497-13.093.834-19.687zm181.455 19.687c3.082-4.275 5.247-9.247 6.213-14.634 20.907-3.165 40.2-9.151 56.101-17.457 19.366-10.103 33.004-23.058 40.099-37.924 12.393 13.88 19.634 31.381 20.602 50.328.337 6.594.616 13.188.833 19.687zm163.651-38.908c-3.813 6.497-12.659 10.221-26.316 11.119-2.867-22.301-13.496-43.148-29.924-58.567.386-2.642.603-5.317.603-8.003 0-6.157-1.026-12.219-3.046-18.092 19.167-16.735 31.637-40.908 33.036-68.234.375-7.314.652-14.65.878-21.994 2.509-.422 4.946-1.06 7.287-1.903-1.414 8.619-3.011 19.846-4.117 32.06-3.281 36.232-.581 62.417 8.023 77.828 14.985 26.836 19.552 45.605 13.576 55.786z"/></g></g></svg>