<svg height="512pt" viewBox="-62 0 512 512.001" width="512pt" xmlns="http://www.w3.org/2000/svg"><path d="m354.988281 316.089844c3.097657-5.09375 4.878907-11.070313 4.878907-17.460938 0-12.5-6.816407-23.398437-16.929688-29.203125 6.195312-6.105469 10.042969-14.589843 10.042969-23.976562 0-18.585938-15.070313-33.65625-33.65625-33.65625-4.28125 0-246.921875 0-251.203125 0-18.585938 0-33.65625 15.070312-33.65625 33.65625 0 9.386719 3.847656 17.871093 10.042968 23.976562-10.113281 5.804688-16.929687 16.703125-16.929687 29.203125 0 6.390625 1.78125 12.367188 4.878906 17.460938-14.523437 5.003906-24.964843 18.78125-24.964843 35.003906 0 20.453125 16.578124 37.027344 37.03125 37.027344 1.449218 0 2.878906-.089844 4.289062-.253906-2.734375 5.191406-4.289062 11.101562-4.289062 17.375 0 14.3125 8.46875 27.65625 21.410156 33.761718 4.078125 1.921875 9.269531 3.566406 13.8125 3.558594 1.753906 0 3.507812-.003906 5.257812-.007812 5.761719-.007813 11.519532-.015626 17.28125-.023438 8.136719-.011719 16.277344-.023438 24.417969-.035156 9.769531-.015625 19.539063-.03125 29.308594-.042969 10.648437-.015625 21.300781-.03125 31.953125-.046875 10.78125-.015625 21.566406-.035156 32.351562-.046875 10.164063-.015625 20.332032-.03125 30.5-.046875 8.800782-.011719 17.601563-.027344 26.40625-.039062 6.6875-.007813 13.375-.019532 20.0625-.027344 3.824219-.007813 7.644532-.011719 11.46875-.019532h1.835938c18.25-2.441406 32.332031-18.066406 32.332031-36.988281 0-6.273437-1.554687-12.179687-4.289063-17.371093 1.410157.164062 2.839844.253906 4.289063.253906 20.453125 0 37.03125-16.578125 37.03125-37.027344 0-16.222656-10.441406-30-24.964844-35.003906zm0 0" fill="#575f64"/><path d="m354.992188 316.09375c3.085937-5.097656 4.878906-11.074219 4.878906-17.464844 0-12.496094-6.820313-23.398437-16.933594-29.203125 6.199219-6.101562 10.046875-14.589843 10.046875-23.972656 0-18.59375-15.074219-33.65625-33.65625-33.65625h-45.226563c18.582032 0 33.65625 15.0625 33.65625 33.65625 0 8.300781-3.007812 15.902344-7.996093 21.769531-.984375 1.160156-.757813 2.941406.488281 3.8125 8.703125 6.085938 14.398438 16.175782 14.398438 27.59375 0 5.324219-1.238282 10.363282-3.445313 14.84375-.683594 1.390625-.160156 3.050782 1.261719 3.671875 13.101562 5.703125 22.261718 18.753907 22.261718 33.957031 0 20.441407-16.574218 37.027344-37.027343 37.027344-1.898438 0-3.175781 1.90625-2.492188 3.683594 1.609375 4.164062 2.492188 8.691406 2.492188 13.433594 0 18.917968-14.082031 34.535156-32.335938 36.980468v.339844h12.507813 22.492187 5.789063c9.777344 0 19.464844-4.359375 26.253906-11.363281 6.675781-6.882813 10.480469-16.21875 10.519531-25.808594 0-.050781 0-.097656 0-.152343 0-6.277344-1.558593-12.1875-4.296875-17.375 1.410156.160156 2.839844.261718 4.296875.261718 20.441407 0 37.027344-16.585937 37.027344-37.027344 0-16.226562-10.441406-30.003906-24.960937-35.007812zm0 0" fill="#474f54"/><path d="m269.007812 504.507812v-47.363281c0-15.8125-7.761718-30.945312-20.585937-40.195312-6.480469-4.675781-14.070313-7.738281-21.984375-8.851563-10.261719-1.445312-10.398438-1.132812-10.398438-11.878906 0-.027344 0-11.523438 0-11.523438h-44.632812v11.523438c0 10.746094-.136719 10.433594-10.398438 11.878906-7.914062 1.113282-15.503906 4.175782-21.984374 8.851563-12.824219 9.25-20.582032 24.382812-20.582032 40.195312v47.363281zm0 0" fill="#0396fd"/><path d="m233.429688 384.695312h-79.414063c-56.917969 0-103.0625-46.140624-103.0625-103.0625v-163.894531h285.539063v163.898438c0 56.917969-46.140626 103.058593-103.0625 103.058593zm0 0" fill="#0396fd"/><path d="m336.492188 117.734375v163.898437c0 56.917969-46.144532 103.0625-103.0625 103.0625h-24.9375c56.917968 0 103.0625-46.144531 103.0625-103.0625v-163.898437zm0 0" fill="#0077f0"/><path d="m125.703125 309.550781c0 8.480469-6.875 15.355469-15.355469 15.355469-8.476562 0-15.351562-6.875-15.351562-15.355469s6.875-15.355469 15.351562-15.355469c8.480469 0 15.355469 6.875 15.355469 15.355469zm0 0" fill="#0066ed"/><path d="m292.453125 309.550781c0 8.480469-6.875 15.355469-15.355469 15.355469-8.480468 0-15.355468-6.875-15.355468-15.355469s6.875-15.355469 15.355468-15.355469c8.480469 0 15.355469 6.875 15.355469 15.355469zm0 0" fill="#0066ed"/><path d="m50.953125 217.023438h-2.015625c-18.800781 0-34.039062 15.242187-34.039062 34.039062 0 18.800781 15.238281 34.039062 34.039062 34.039062h2.015625zm0 0" fill="#0396fd"/><path d="m336.582031 217.023438h2.019531c18.796876 0 34.039063 15.242187 34.039063 34.039062 0 18.800781-15.242187 34.039062-34.039063 34.039062h-2.019531zm0 0" fill="#0396fd"/><path d="m193.863281 350.125c-9.0625 0-17.195312-5.394531-20.726562-13.738281-1.613281-3.8125.171875-8.207031 3.980469-9.820313 3.8125-1.613281 8.207031.167969 9.820312 3.980469 1.179688 2.789063 3.898438 4.589844 6.925781 4.589844 2.878907 0 5.542969-1.679688 6.785157-4.28125 1.785156-3.734375 6.261718-5.3125 9.992187-3.527344 3.734375 1.78125 5.3125 6.257813 3.527344 9.988281-3.714844 7.78125-11.6875 12.808594-20.304688 12.808594zm0 0"/><path d="m152.304688 305.984375c-4.136719 0-7.492188-3.355469-7.492188-7.496094v-9.160156c0-4.140625 3.355469-7.492187 7.492188-7.492187 4.140624 0 7.496093 3.351562 7.496093 7.492187v9.160156c0 4.140625-3.355469 7.496094-7.496093 7.496094zm0 0"/><path d="m234.683594 305.984375c-4.140625 0-7.492188-3.355469-7.492188-7.496094v-9.160156c0-4.140625 3.351563-7.492187 7.492188-7.492187s7.492187 3.351562 7.492187 7.492187v9.160156c0 4.140625-3.351562 7.496094-7.492187 7.496094zm0 0"/><path d="m238.796875 86.914062h-90.144531c-53.980469 0-97.742188 22.40625-97.742188 80.851563v78.410156c117.648438-11.804687 139.699219-47.65625 142.8125-97.320312 3.117188 49.664062 25.164063 85.515625 142.8125 97.320312v-78.410156c0-58.445313-43.757812-80.851563-97.738281-80.851563zm0 0" fill="#575f64"/><path d="m336.492188 164.777344v81.402344c-8.839844-.890626-17.140626-1.917969-24.933594-3.078126v-125.367187h9.289062c9.453125 11.78125 15.125 27.273437 15.644532 47.042969zm0 0" fill="#474f54"/><path d="m335.375 166.339844h-283.300781c-.367188 0-.660157-.296875-.660157-.660156v-49.011719c0-.363281.292969-.65625.660157-.65625h283.300781c.363281 0 .65625.292969.65625.65625v49.011719c0 .363281-.292969.660156-.65625.660156zm0 0" fill="#ffc143"/><path d="m335.375 166.339844h-23.109375c-.363281 0-.65625-.296875-.65625-.660156v-49.011719c0-.363281.292969-.65625.65625-.65625h23.109375c.363281 0 .660156.292969.660156.65625v49.011719c-.003906.363281-.296875.660156-.660156.660156zm0 0" fill="#ffb509"/><path d="m146.328125 116.101562h-94.792969v-38.105468c0-15.261719 12.371094-27.632813 27.628906-27.632813h39.53125c15.257813 0 27.628907 12.371094 27.628907 27.632813v38.105468zm0 0" fill="#ffc143"/><path d="m335.914062 116.101562h-94.792968v-38.105468c0-15.261719 12.371094-27.632813 27.632812-27.632813h39.527344c15.261719 0 27.632812 12.371094 27.632812 27.632813zm0 0" fill="#ffc143"/><path d="m335.914062 78.652344v36.785156c0 .371094-.300781.660156-.660156.660156h-23.546875v-38.09375c0-15.269531-12.367187-27.636718-27.636719-27.636718h23.546876c15.628906 0 28.296874 12.667968 28.296874 28.285156zm0 0" fill="#ffb509"/><path d="m241.121094 116.101562h-94.792969v-80.972656c0-15.265625 12.371094-27.636718 27.632813-27.636718h39.527343c15.261719 0 27.632813 12.371093 27.632813 27.636718zm0 0" fill="#ffc143"/><path d="m193.722656 274.730469c-11.175781 0-20.269531-9.089844-20.269531-20.265625v-27.6875c0-4.136719 3.355469-7.492188 7.496094-7.492188 4.136719 0 7.492187 3.355469 7.492187 7.492188v27.6875c0 2.910156 2.371094 5.28125 5.28125 5.28125 2.914063 0 5.285156-2.371094 5.285156-5.28125v-27.6875c0-4.136719 3.355469-7.492188 7.492188-7.492188 4.140625 0 7.496094 3.355469 7.496094 7.492188v27.6875c-.003906 11.175781-9.09375 20.265625-20.273438 20.265625zm0 0"/><path d="m65.714844 293.882812c0 11.234376-9.109375 20.34375-20.347656 20.34375-11.234376 0-20.34375-9.109374-20.34375-20.34375 0-11.238281 9.109374-20.347656 20.34375-20.347656 11.238281 0 20.347656 9.109375 20.347656 20.347656zm0 0" fill="#ffc143"/><path d="m65.714844 293.882812c0 11.234376-9.113282 20.34375-20.347656 20.34375-7.96875 0-14.875-4.585937-18.210938-11.265624 1.835938.546874 3.792969.84375 5.804688.84375 11.238281 0 20.347656-9.109376 20.347656-20.34375 0-3.269532-.773438-6.34375-2.132813-9.082032 8.40625 2.5 14.539063 10.28125 14.539063 19.503906zm0 0" fill="#ffb509"/><path d="m362.425781 293.882812c0 11.234376-9.109375 20.34375-20.347656 20.34375s-20.347656-9.109374-20.347656-20.34375c0-11.238281 9.109375-20.347656 20.347656-20.347656s20.347656 9.109375 20.347656 20.347656zm0 0" fill="#ffc143"/><path d="m362.425781 293.882812c0 11.234376-9.109375 20.34375-20.347656 20.34375-7.96875 0-14.875-4.585937-18.210937-11.265624 1.835937.546874 3.792968.84375 5.804687.84375 11.238281 0 20.347656-9.109376 20.347656-20.34375 0-3.269532-.773437-6.34375-2.132812-9.082032 8.40625 2.5 14.539062 10.28125 14.539062 19.503906zm0 0" fill="#ffb509"/><path d="m214.703125 61.441406c0-16.003906-9.394531-28.972656-20.980469-28.972656-11.585937 0-20.980468 12.96875-20.980468 28.972656 0 16 9.394531 28.96875 20.980468 28.96875 11.585938 0 20.980469-12.96875 20.980469-28.96875zm0 0" fill="#0396fd"/><path d="m214.703125 61.441406c0 16.003906-9.390625 28.96875-20.980469 28.96875-2.226562 0-4.367187-.476562-6.382812-1.367187 8.460937-3.734375 14.585937-14.675781 14.585937-27.601563 0-12.929687-6.125-23.867187-14.585937-27.605468 2.015625-.886719 4.15625-1.367188 6.382812-1.367188 11.589844 0 20.980469 12.96875 20.980469 28.972656zm0 0" fill="#0077f0"/><path d="m248.210938 416.804688c-.332032 32.300781-34.074219 51.441406-48.289063 58.078124-3.929687 1.835938-8.464844 1.835938-12.398437 0-14.210938-6.636718-47.953126-25.777343-48.285157-58.078124 5.792969-4.148438 12.488281-7.003907 19.488281-8.324219 3.0625 10.507812 10.847657 24.621093 30.621094 30.882812 2.84375.898438 5.910156.898438 8.753906 0 19.773438-6.261719 27.558594-20.375 30.617188-30.882812 7.003906 1.320312 13.695312 4.175781 19.492188 8.324219zm0 0" fill="#ffc143"/><path d="m193.722656 24.976562c-15.964844 0-28.472656 16.015626-28.472656 36.464844 0 20.445313 12.507812 36.460938 28.472656 36.460938 15.96875 0 28.472656-16.015625 28.472656-36.460938 0-20.449218-12.503906-36.464844-28.472656-36.464844zm0 57.941407c-7.183594 0-13.484375-10.035157-13.484375-21.476563 0-11.445312 6.300781-21.480468 13.484375-21.480468 7.1875 0 13.488282 10.035156 13.488282 21.480468 0 11.441406-6.304688 21.476563-13.488282 21.476563zm0 0"/><path d="m387.445312 351.097656c0-16.183594-8.761718-30.859375-22.457031-38.671875.582031-1.640625 1.042969-3.316406 1.410157-5.015625 2.238281-4.007812 3.519531-8.621094 3.519531-13.527344 0-4.496093-1.078125-8.746093-2.976563-12.507812 8.105469-7.585938 13.191406-18.359375 13.191406-30.308594 0-21.117187-15.84375-38.589844-36.265624-41.1875l-.578126-131.28125c0-19.71875-16.042968-35.761718-35.761718-35.761718h-38.179688c-7.742187 0-14.914062 2.484374-20.773437 6.683593v-13.757812c0-19.71875-16.042969-35.761719-35.761719-35.761719h-38.175781c-19.71875 0-35.761719 16.042969-35.761719 35.761719v13.753906c-5.863281-4.199219-13.035156-6.679687-20.777344-6.679687h-38.179687c-19.71875 0-35.757813 16.042968-35.757813 35.761718l-.582031 131.292969c-20.375 2.636719-36.171875 20.089844-36.171875 41.175781 0 11.921875 5.050781 22.679688 13.125 30.261719-1.917969 3.777344-3.003906 8.039063-3.003906 12.554687 0 4.90625 1.28125 9.519532 3.519531 13.527344.371094 1.699219.832031 3.375 1.414063 5.015625-13.699219 7.8125-22.460938 22.488281-22.460938 38.671875 0 22.394532 16.625 40.980469 38.179688 44.066406-.761719 3.300782-1.152344 6.683594-1.152344 10.078126 0 17.277343 10.109375 33.199218 25.753906 40.558593 6.089844 2.867188 12 4.261719 18.0625 4.261719h30.558594c-.296875 2.335938-.453125 4.703125-.453125 7.085938v47.359374c0 4.136719 3.351562 7.492188 7.492187 7.492188h150.566406c4.136719 0 7.492188-3.351562 7.492188-7.492188v-47.359374c0-2.382813-.160156-4.75-.453125-7.085938h21.574219c4.140625 0 7.496094-3.355469 7.496094-7.496094 0-4.136718-3.355469-7.492187-7.496094-7.492187h-25.609375c-.347657 0-4.007813-7.824219-4.542969-8.660157-1.820312-2.855468-3.894531-5.550781-6.195312-8.039062-7.027344-7.609375-16.199219-13.199219-26.125-16.046875-.503907-.144531-1.007813-.285156-1.519532-.414063-3.386718-.871093-6.597656-1.242187-10.054687-1.804687-.039063-1.175781-.039063-2.664063-.039063-3.890625v-4.03125h9.894532c47.027343 0 87.273437-29.523438 103.21875-71.003906 1.757812.351562 3.574218.535156 5.429687.535156 2.449219 0 4.824219-.320312 7.089844-.914062.875 1.078124 2.039062 1.90625 3.382812 2.367187 11.910157 4.105469 19.910157 15.324219 19.910157 27.921875 0 16.289062-13.25 29.535156-29.535157 29.535156-1.109375 0-2.230469-.066406-3.429687-.203125-2.753906-.320312-5.472656.914063-7.042969 3.207031-1.570313 2.292969-1.742187 5.269532-.445313 7.726563 2.273438 4.316406 3.425782 8.984375 3.425782 13.882813 0 5.019531-1.269532 9.980468-3.671875 14.347656-1.996094 3.625-.671875 8.179687 2.953125 10.175781 3.621094 1.992187 8.179687.671875 10.175781-2.953125 3.617187-6.574219 5.527344-14.03125 5.527344-21.570312 0-3.394532-.390625-6.78125-1.152344-10.078126 21.554687-3.085937 38.179687-21.671874 38.179687-44.066406zm-138.871093-272.5c0-11.457031 9.320312-20.777344 20.777343-20.777344h38.175782c11.457031 0 20.777344 9.320313 20.777344 20.777344v29.917969h-79.730469zm-94.714844-42.835937c0-11.457031 9.320313-20.777344 20.777344-20.777344h38.175781c11.457031 0 20.773438 9.320313 20.773438 20.777344v72.753906h-79.726563zm-94.714844 42.835937c0-11.457031 9.320313-20.777344 20.777344-20.777344h38.175781c11.457032 0 20.777344 9.320313 20.777344 20.777344v29.917969h-79.730469zm-.238281 44.90625h269.632812v35.339844h-269.632812zm270.136719 50.324219v64.007813c-49.015625-5.632813-82.472657-16.183594-102.132813-32.183594-10.402344-8.464844-17.296875-18.5625-21.367187-31.824219zm-270.636719 0h123.484375c-4.074219 13.257813-10.953125 23.359375-21.351563 31.824219-19.65625 15.996094-53.097656 26.546875-102.089843 32.175781v-20.800781c0-.269532-.015625-.535156-.042969-.796875zm-13.039062 107.199219c7.089843 0 12.855468 5.765625 12.855468 12.851562 0 7.089844-5.765625 12.855469-12.855468 12.855469-7.085938 0-12.855469-5.765625-12.855469-12.855469 0-7.085937 5.769531-12.851562 12.855469-12.851562zm-22.976563-29.964844c0-12.761719 9.050781-23.449219 21.070313-25.976562v41.027343c-4.675782.316407-9.039063 1.792969-12.804688 4.148438-5.082031-4.835938-8.265625-11.644531-8.265625-19.199219zm93.042969 184.011719h-34.585938c-3.867187 0-7.578125-.898438-11.6875-2.832031-10.414062-4.902344-17.144531-15.5-17.144531-27 0-4.898438 1.152344-9.566407 3.425781-13.882813 1.296875-2.457031 1.125-5.429687-.445312-7.726563-1.574219-2.292968-4.285156-3.527343-7.042969-3.207031-1.183594.136719-2.339844.203125-3.429687.203125-16.289063 0-29.539063-13.246094-29.539063-29.535156 0-12.597656 8.003906-23.816406 19.914063-27.921875 1.339843-.460937 2.507812-1.289063 3.378906-2.367187 2.265625.59375 4.640625.917968 7.089844.917968 1.859374 0 3.671874-.1875 5.429687-.535156 15.949219 41.476562 56.191406 71 103.21875 71h9.894531v4.035156c0 1.222656 0 2.710938-.039062 3.890625-.898438.144531-1.988282.296875-3.007813.441407-9.464843 1.324218-18.226562 4.660156-25.988281 10.15625-.007812.003906-.015625.011718-.023438.015624-.070312.050782-.140624.09375-.210937.144532-8.609375 6.210937-15.1875 14.648437-19.207031 24.203125zm117.984375-17.582031c.117187-.238282 7.097656 2.609374 7.015625 3.226562-1.410156 10.992188-9.066406 31.214844-43.683594 47.375-1.925781.898438-4.132812.894531-6.054688 0-3.070312-1.433594-6.140624-3.03125-9.128906-4.753906-3.585937-2.070313-8.167968-.839844-10.234375 2.746094-2.066406 3.585937-.835937 8.167968 2.75 10.234374 3.359375 1.9375 6.816407 3.738282 10.277344 5.351563 2.976563 1.390625 6.167969 2.085937 9.363281 2.085937 3.195313 0 6.390625-.695312 9.363282-2.085937 13.347656-6.230469 41.765624-22.34375 50.199218-49.464844 5.261719 7.148438 8.226563 15.878907 8.226563 24.9375v39.871094h-135.578125v-39.871094c0-9.066406 2.96875-17.800781 8.238281-24.957031 1.050781 3.371094 2.417969 6.683594 4.140625 9.914062 1.949219 3.652344 6.484375 5.035157 10.136719 3.085938 3.652343-1.945312 5.035156-6.484375 3.085937-10.136719-2.457031-4.613281-3.984375-9.410156-4.554687-14.316406.132812-.074219.257812-.15625.390625-.226563 2.007812-1.132812 4.375-2.425781 6.609375-2.960937 3.601562 5.851563 6.332031 11.546875 11.433593 16.445313 6.097657 5.855468 13.640626 9.972656 21.675782 12.515624 4.339844 1.375 8.925781 1.375 13.265625 0 18.777343-5.945312 28.269531-18.015624 33.0625-29.015624zm-21.941407-7.230469c1.839844 2.242187 4.082032 3.347656 6.832032 4.050781-4.601563 8.617188-12.125 14.632812-22.472656 17.910156-1.363282.429688-2.863282.429688-4.222657 0-10.351562-3.277344-17.871093-9.292968-22.476562-17.910156 2.75-.703125 4.992187-1.808594 6.832031-4.050781 2.929688-3.582031 2.929688-7.742188 2.929688-14.039063v-4.035156h29.652343v4.035156c-.003906 6.296875-.003906 10.457032 2.925781 14.039063zm117.613282-140.996094c-8.824219 4.675781-14.851563 13.953125-14.851563 24.617187 0 8.082032 3.464844 15.363282 8.980469 20.457032-13.382812 36.636718-48.578125 62.863281-89.789062 62.863281h-79.414063c-41.210937 0-76.410156-26.222656-89.796875-62.859375 5.523438-5.089844 8.988281-12.378906 8.988281-20.460938 0-10.628906-5.984375-19.878906-14.761719-24.570312v-16.402344c53.519532-5.972656 89.078126-17.347656 111.550782-35.636718 11.84375-9.640626 19.160156-20.707032 23.726562-31.921876 4.566406 11.214844 11.882813 22.28125 23.726563 31.921876 22.484375 18.300781 58.074219 29.675781 111.640625 35.644531zm12.988281 37.46875c-7.085937 0-12.855469-5.765625-12.855469-12.851563 0-7.089843 5.769532-12.855468 12.855469-12.855468 7.089844 0 12.855469 5.765625 12.855469 12.855468 0 7.085938-5.765625 12.851563-12.855469 12.851563zm14.765625-36.441406c-3.753906-2.355469-8.101562-3.839844-12.765625-4.171875v-41.035156c12.019531 2.527343 21.070313 13.214843 21.070313 25.976562 0 7.574219-3.199219 14.394531-8.304688 19.230469zm0 0"/></svg>