<svg id="Capa_1" enable-background="new 0 0 512 512" height="512" viewBox="0 0 512 512" width="512" xmlns="http://www.w3.org/2000/svg"><g><g><path d="m109.495 338.149h24.374v-79.396c0-6.678-5.414-12.092-12.092-12.092h-.19c-6.678 0-12.092 5.414-12.092 12.092z" fill="#b3dafe"/><path d="m121.681 246.661c-2.314 0-4.468.67-6.311 1.812 3.518 2.181 5.876 6.115 5.876 10.622v79.054h12.622v-79.054c0-6.867-5.456-12.434-12.187-12.434z" fill="#8ac9fe"/><path d="m60.748 315.511h24.373v-56.758c0-6.678-5.414-12.092-12.092-12.092h-.19c-6.678 0-12.092 5.414-12.092 12.092z" fill="#b3dafe"/><path d="m72.934 246.661c-2.314 0-4.469.67-6.311 1.812 3.518 2.181 5.876 6.115 5.876 10.622v56.416h12.622v-56.416c0-6.867-5.456-12.434-12.187-12.434z" fill="#8ac9fe"/><path d="m81.627 504.5h41.009v-101.687-.943-.279c11.475-3.306 20.393-13.172 22.237-25.715l.747-5.078v-.026-26.539c0-2.2-.946-4.29-2.587-5.717l-13.512-11.75c.622-1.124 1.35-2.208 2.202-3.228 1.559-1.866 4.305-2.09 6.134-.499l17.798 15.477c1.642 1.427 2.587 3.517 2.587 5.717v-40.886h-97.494v67.426c0 13.928 8.713 25.775 20.879 30.191z" fill="#b3dafe"/><path d="m249.744 504.5-24.204-102.989-102.263 102.989z" fill="#60b7ff"/><path d="m137.362 504.5v-103.537l-.106.006c10.505-3.827 18.503-13.285 20.239-25.094l.747-5.078v-.026-26.539c0-2.2-.945-4.29-2.587-5.717l-17.798-15.477c-1.829-1.591-4.575-1.367-6.134.499-.852 1.02-1.58 2.103-2.202 3.228l13.512 11.75c1.641 1.427 2.587 3.517 2.587 5.717v26.539.026l-.747 5.078c-1.844 12.543-10.762 22.41-22.237 25.715v.279.943 101.688z" fill="#8ac9fe"/><path d="m429.005 409.839c-.161-18.435 15.919-18.584 15.758-37.018-.161-18.431-16.241-18.282-16.403-36.713-.161-18.432 15.919-18.582 15.758-37.014-.161-18.431-16.242-18.282-16.403-36.712-6.967 0-177.702 0-189.153 0-.161 18.431-16.242 18.281-16.403 36.712-.162 18.432 15.919 18.582 15.758 37.014-.161 18.431-16.242 18.282-16.403 36.713-.161 18.434 15.919 18.584 15.758 37.018-.161 18.433-16.241 18.284-16.403 36.718h224.54c-.162-18.435-16.242-18.285-16.404-36.718z" fill="#5a5a5a"/><path d="m445.835 409.839c-.161-18.435 15.919-18.584 15.758-37.018-.161-18.431-16.241-18.282-16.403-36.713-.161-18.432 15.919-18.582 15.758-37.014-.161-18.431-16.242-18.282-16.403-36.712h-23.141c.161 18.431 16.242 18.281 16.403 36.712.161 18.432-15.919 18.582-15.758 37.014.162 18.431 16.242 18.282 16.403 36.713.162 18.434-15.919 18.584-15.758 37.018.161 18.433 16.242 18.284 16.403 36.718h23.141c-.161-18.435-16.241-18.285-16.403-36.718z" fill="#444"/><path d="m440.725 504.5c0-11.844 0-92.215 0-102.989l-5.244-11.006c-1.427-.106-24.088-1.785-25.577-1.895l-.004.024-13.233 4.643-15.72-4.668c0-.061.005-.121.005-.182v-14.97l-39.398-20.961-39.399 20.961v14.97c0 .06.004.12.005.18v.001.001l-12.564 7.887-16.382-7.887h-22.116c-17.763 0-32.162 14.691-32.162 32.813v83.078z" fill="#b3dafe"/><path d="m268.108 504.5v-103.537c4.929-1.789 9.276-4.814 12.721-8.687l-7.615-3.667h-22.116c-17.763 0-32.162 14.691-32.162 32.813v83.078z" fill="#8ac9fe"/><ellipse cx="341.553" cy="123.972" fill="#fee8c7" rx="114.161" ry="116.472"/><ellipse cx="341.553" cy="123.972" fill="#fedba6" rx="78.994" ry="80.592"/><g fill="#8ac9fe"><path d="m408.868 388.61c16.277 0 29.722 12.339 31.858 28.348v-27.118c-5.533-1.682-8.738-1.23-31.858-1.23z"/><path d="m329.856 381.65c-.001 0-.001 0 0 0 3.69.463 7.447.706 11.26.706h.621c14.039 0 27.335-3.238 39.216-9.017v-75.994h-78.797v76.113c8.583 4.142 17.9 6.961 27.7 8.192z"/><path d="m294.382 287.32h-44.192c-17.283 0-31.293-14.01-31.293-31.293 0-19.222 14.833-32.117 31.293-32.117h44.192z"/></g><path d="m388.725 223.91h44.192c17.283 0 31.293 14.01 31.293 31.293v.825c0 17.283-14.01 31.293-31.293 31.293h-44.192z" fill="#60b7ff"/><path d="m329.855 146.718c45.078 5.661 79.981 44.861 79.981 92.382v32.997c0 47.521-34.903 86.721-79.981 92.382 3.69.463 7.447.706 11.26.706h.621c50.391 0 91.241-41.677 91.241-93.088v-32.997c0-55.284-47.227-99.399-103.122-92.382z" fill="#b3dafe"/><path d="m336.167 364.479c45.077-5.661 79.98-44.862 79.98-92.382v-32.997c0-47.521-34.903-86.721-79.98-92.382-43.16 0-86.293 39.391-86.293 92.382v32.997c0 53.215 43.395 92.382 86.293 92.382z" fill="#c4e2ff"/><path d="m335.102 501.674c.49-.541 17.14-19.736 17.608-20.276 2.879-3.317 2.879-8.306 0-11.624l-11.138-12.835c31.607-6.058 55.613-34.371 55.699-68.331h-16.323c-.097 22.116-17.695 40.014-39.394 40.014s-39.297-17.898-39.394-40.014h-28.946c.086 33.873 23.969 62.131 55.456 68.286l-11.177 12.88c-2.879 3.317-2.88 8.306 0 11.624.179.207 17.419 20.08 17.609 20.276z" fill="#ffe177"/><path d="m404.167 289.296h-10.031c-4.357 0-7.889 3.604-7.889 8.049 0 4.445 3.532 8.049 7.889 8.049h10.362c4.438 0 8.02-3.738 7.885-8.297-.129-4.405-3.896-7.801-8.216-7.801z" fill="#fe8f83"/><path d="m288.64 289.296h-10.031c-4.357 0-7.889 3.604-7.889 8.049 0 4.445 3.532 8.049 7.889 8.049h10.362c4.438 0 8.02-3.738 7.885-8.297-.13-4.405-3.897-7.801-8.216-7.801z" fill="#fe8f83"/><path d="m106.339 283.059h-12.622c1.743 0 3.156 1.442 3.156 3.219v30.852c0 4.506-2.358 8.441-5.875 10.622 1.843 1.142 3.998 1.812 6.311 1.812 6.731 0 12.187-5.566 12.187-12.434v-30.852c-.001-1.778-1.414-3.219-3.157-3.219z" fill="#b3dafe"/><path d="m329.983 78.642c-56.272 7.288-93.087 54.19-93.087 106.123v16.86h190.381v-16.86c0-62.395-51.961-106.123-97.294-106.123z" fill="#ffc344"/><path d="m329.983 78.642c52.355 5.876 93.087 51.143 93.087 106.123v16.86h23.141v-16.86c0-63.602-54.122-113.094-116.228-106.123z" fill="#fdb441"/><path d="m448.685 179.266c14.186.455 26.085-.923 37.963-11.544 9.873-8.827 15.579-21.896 15.579-35.674 0-10.01-3.012-19.656-8.461-27.575-7.186-10.443-14.357-20.895-20.862-31.792l-7.214-12.086c-2.629-4.405-7.319-7.093-12.374-7.093-5.055 0-9.745 2.688-12.374 7.093l-7.214 12.087c-6.504 10.897-13.677 21.349-20.863 31.792-5.448 7.919-8.46 17.565-8.46 27.574 0 26.049 19.694 46.43 44.28 47.218z" fill="#57be92"/><path d="m493.766 104.472c-7.185-10.442-14.357-20.895-20.862-31.792l-7.214-12.086c-2.629-4.405-7.319-7.093-12.374-7.093-3.067 0-5.996.995-8.415 2.756 1.568 1.142 2.925 2.604 3.959 4.337 10.793 18.082 12.234 20.855 28.076 43.878 5.449 7.919 8.461 17.566 8.461 27.575 0 23.243-16.204 44.212-40.882 46.885 1.373.171 2.763.288 4.171.333 14.186.455 26.085-.923 37.962-11.543 9.873-8.827 15.579-21.897 15.579-35.675 0-10.009-3.012-19.656-8.461-27.575z" fill="#22b27f"/><path d="m328.67 456.896-11.177 12.88c-2.879 3.317-2.88 8.306 0 11.624.17.195 17.428 20.09 17.608 20.276l10.382-2.252 15.641-18.024c2.879-3.317 2.879-8.306 0-11.624l-11.138-12.835c31.607-6.058 55.613-34.371 55.699-68.331-9.025 0-15.878 0-24.738 0-.097 22.116-17.695 40.014-39.394 40.014s-39.297-17.898-39.394-40.014h-18.059c-2.568 4.13-6.034 7.614-10.121 10.177 4.897 31.014 27.764 52.844 54.691 58.109z" fill="#ffe177"/><g><path d="m409.893 388.609h-12.622c-.086 33.96-24.092 62.273-55.699 68.331l11.138 12.835c2.879 3.317 2.879 8.306 0 11.624-.471.542-17.121 19.737-17.608 20.276 3.439 3.807 9.365 3.769 12.745-.127l17.486-20.149c2.879-3.317 2.879-8.306 0-11.624l-11.138-12.835c31.606-6.058 55.612-34.371 55.698-68.331z" fill="#ffd15b"/></g><path d="m273.214 388.609c.009 3.458.278 6.853.766 10.177 4.088-2.562 7.553-6.047 10.121-10.177z" fill="#ffd15b"/><path d="m453.07 147.665c-.889 0-1.792-.018-2.709-.047-9.824-.315-17.233-8.308-17.233-18.593 0-3.96 1.19-7.871 3.351-11.012 6.69-9.724 11.261-16.435 16.838-25.771 5.593 9.375 10.354 16.347 16.838 25.771 2.161 3.14 3.35 7.051 3.35 11.012 0 5.516-2.209 10.656-6.061 14.1-3.844 3.436-7.338 4.54-14.374 4.54-.001 0 0 0 0 0z" fill="#ffe177"/><path d="m311.593 304.824h-301.825v27.511c0 1.778 1.413 3.219 3.156 3.219h301.798v-27.539c0-1.762-1.401-3.191-3.129-3.191z" fill="#ffe177"/><path d="m329.983 121.314-4.669 7.679c-4.142 6.813-9.272 12.967-15.22 18.262v.001c-8.592 6.763-13.516 16.503-13.516 26.736 0 1.804.165 3.59.464 5.349h-58.218-4.207c-2.664 0-4.824 2.203-4.824 4.922v34.726c0 2.718 2.16 4.922 4.824 4.922h194.943c2.664 0 4.824-2.204 4.824-4.922v-34.726c0-2.719-2.16-4.922-4.824-4.922-20.832 0-41.57 0-62.425 0 .299-1.759.463-3.544.463-5.349 0-10.233-4.923-19.972-13.516-26.736v-.001c-5.948-5.295-11.078-11.449-15.22-18.262l-4.669-7.679z" fill="#ffe177"/><ellipse cx="341.433" cy="172.534" fill="#fd8087" rx="12.085" ry="16.091"/><path d="m334.652 128.994c4.142 6.813 9.272 12.967 15.22 18.262v.001c8.593 6.763 13.516 16.503 13.516 26.736 0 1.804-.164 3.59-.463 5.349h23.141c.299-1.759.463-3.544.463-5.349 0-10.233-4.923-19.972-13.516-26.736v-.001c-5.948-5.295-11.078-11.449-15.22-18.262l-9.527-15.668c-3.09-5.082-10.337-5.082-13.427 0l-4.857 7.988z" fill="#ffd15b"/><path d="m448.492 179.34h-23.141c2.664 0 4.824 2.203 4.824 4.922v34.726c0 2.718-2.16 4.922-4.824 4.922h23.141c2.664 0 4.824-2.204 4.824-4.922v-34.726c0-2.718-2.16-4.922-4.824-4.922z" fill="#ffd15b"/><path d="m328.423 298.385h-315.499c-1.743 0-3.156 1.441-3.156 3.22v7.512h297.618c1.728 0 3.128 1.429 3.128 3.192v23.246h17.909c1.728 0 3.128-1.429 3.128-3.192v-30.786c.001-1.763-1.4-3.192-3.128-3.192z" fill="#ffd15b"/><path d="m143.952 327.752c3.517-2.181 5.875-6.115 5.875-10.622v-30.852c0-1.778-1.413-3.219-3.156-3.219-3.635 0-6.015 0-9.647 0-1.743 0-3.156 1.442-3.156 3.219v30.852c0 4.506 2.358 8.441 5.876 10.622z" fill="#c4e2ff"/><path d="m155.086 283.059h-12.622c1.743 0 3.156 1.442 3.156 3.219v30.852c0 4.506-2.358 8.441-5.875 10.622 1.843 1.142 3.998 1.812 6.311 1.812 6.731 0 12.187-5.566 12.187-12.434v-30.852c-.001-1.778-1.414-3.219-3.157-3.219z" fill="#b3dafe"/><path d="m95.204 327.752c3.518-2.181 5.875-6.115 5.875-10.622v-30.852c0-1.778-1.413-3.219-3.156-3.219-3.635 0-6.016 0-9.647 0-1.743 0-3.156 1.442-3.156 3.219v30.852c0 4.506 2.358 8.441 5.876 10.622z" fill="#c4e2ff"/><path d="m106.339 283.059h-12.622c1.743 0 3.156 1.442 3.156 3.219v30.852c0 4.506-2.358 8.441-5.875 10.622 1.843 1.142 3.998 1.812 6.311 1.812 6.731 0 12.187-5.566 12.187-12.434v-30.852c-.001-1.778-1.414-3.219-3.157-3.219z" fill="#b3dafe"/><path d="m201.299 400.963v103.537h43.112c0-31.164 0-81.909 0-103.537 5.243-1.904 9.049-4.76 12.622-8.579v-.001c5.16-5.753 8.257-13.375 8.257-21.612 0-15.127 0-59.598 0-74.836 0-.094 0-.19 0-.274h-.027c-.141-2.24-1.949-4.018-4.18-4.018h-56.29v-32.549c0-6.867-5.457-12.434-12.187-12.434s-12.187 5.567-12.187 12.434v111.677c.001 13.929 8.713 25.776 20.88 30.192z" fill="#c4e2ff"/><path d="m257.034 504.5v-103.537c12.166-4.416 20.88-16.263 20.88-30.191 0-15.127 0-59.598 0-74.836 0-.094 0-.19 0-.274h-.027c-.141-2.24-1.949-4.018-4.181-4.018h-16.83c2.231 0 4.039 1.778 4.18 4.018h.027v.274 74.836c0 13.634-8.536 25.711-20.879 30.191v103.537z" fill="#b3dafe"/><path d="m192.171 259.095v32.549h12.622v-32.549c0-6.867-5.456-12.434-12.187-12.434-2.313 0-4.468.67-6.311 1.812 3.518 2.181 5.876 6.115 5.876 10.622z" fill="#b3dafe"/><path d="m435.481 402.997-33.646 101.503h43.195v-83.077c0-6.832-2.048-13.174-5.549-18.426z" fill="#fd8087"/><path d="m441.03 504.5h23.141c0-31.305 0-76.11 0-83.078 0-13.958-8.676-26.345-21.458-30.944-.301-.108-2.639-.866-2.795-.866l-4.437 13.384c3.501 5.252 5.549 11.595 5.549 18.426z" fill="#fe646f"/></g><g><path d="m501.429 102.53c-.048-.079-.098-.157-.148-.233-12.174-18.4-10.437-14.193-29.15-45.546-3.957-6.629-11.166-10.749-18.814-10.749-4.621 0-9.564 1.638-12.953 4.284-.233.171-.456.34-.671.509-10.032-13.926-22.857-25.675-37.573-34.315-18.362-10.782-39.305-16.48-60.567-16.48-25.795 0-50.457 8.156-71.318 23.585-3.33 2.463-4.033 7.16-1.57 10.49 2.465 3.331 7.159 4.033 10.49 1.57 18.261-13.506 39.838-20.645 62.398-20.645 36.032 0 68.909 18.107 88.802 48.667-8.981 15.215-11.433 18.491-19.881 30.945-19.63-15.602-43.804-24.123-68.921-24.123-47.209 0-88.554 29.9-104.847 73.605-1.207-6.583-1.814-13.301-1.814-20.122 0-23.702 7.352-46.251 21.261-65.212 2.449-3.34 1.729-8.033-1.611-10.483-3.339-2.449-8.034-1.729-10.483 1.611-15.81 21.551-24.166 47.169-24.166 74.084 0 16.979 3.323 33.407 9.867 48.877-4.387 1.904-7.468 6.302-7.468 11.414v34.726c0 2.661.842 5.123 2.26 7.146-7.675 6.673-12.597 16.272-13.107 27.186-2.452-8.183-9.966-14.159-18.838-14.159-10.855 0-19.687 8.942-19.687 19.934v31.79h-7.178v-4.607c0-5.911-4.78-10.719-10.655-10.719h-13.718v-16.806c0-10.771-8.736-19.539-19.585-19.591-.034 0-.068 0-.103 0-.212-.002-.422.005-.635.018-.332.01-.655.026-.911.049-10.172.75-18.141 9.327-18.141 19.525v16.806h-9.373v-16.806c0-10.771-8.736-19.54-19.585-19.591-.034 0-.068 0-.103 0-.214-.002-.422.005-.635.018-.332.01-.655.026-.911.049-10.172.75-18.141 9.327-18.141 19.525v32.132h-40.322c-5.876 0-10.656 4.809-10.656 10.72v30.731c0 5.911 4.78 10.719 10.656 10.719h40.323v27.717c0 14.822 8.204 28.297 20.88 35.043v98.682c0 4.142 3.357 7.5 7.5 7.5h382.544c4.143 0 7.5-3.358 7.5-7.5v-16.706c0-4.142-3.357-7.5-7.5-7.5s-7.5 3.358-7.5 7.5v9.206h-44.449c3.646-10.999 29.429-88.78 32.255-97.305 7.741 4.666 12.194 12.899 12.194 21.521v31.578c0 4.142 3.357 7.5 7.5 7.5s7.5-3.358 7.5-7.5v-31.578c0-10.29-3.928-19.858-10.519-27.07 3.937-4.775 8.031-10.929 7.94-21.391-.188-21.415-16.28-22.491-16.403-36.713-.126-14.232 15.944-15.586 15.758-37.014-.073-8.283-2.721-13.817-5.816-18.097 5.661-6.743 9.079-15.43 9.079-24.903v-.825c0-10.665-4.678-21.532-13.175-29.041 1.43-2.029 2.281-4.501 2.281-7.174v-32.49c41.734-3.746 61.282-50.073 40.613-83.968zm-88.029 69.31h-19.429c-.557-10.21-5.063-19.866-12.677-27.288-4.432-4.321-9.249-6.613-19.234-22.892-1.13-1.842-2.317-3.818-3.611-5.974-3.772-6.283-6.943-13.671-16.895-13.671s0 0 0 0c-9.986 0-13.182 7.493-16.906 13.688-7.304 12.163-10.993 18.306-19.381 25.809-9.836 7.822-15.537 18.734-16.137 30.329h-43.866c6.303-49.312 47.475-86.352 96.289-86.352 22.273 0 43.738 7.779 60.936 21.972-3.803 7.865-5.584 14.81-5.584 24.587 0 14.921 5.816 29.374 16.495 39.792zm-62.428 59.57v5.09c0 5.19-4.223 9.413-9.413 9.413-5.189 0-9.412-4.223-9.412-9.413v-5.09zm-9.413 29.503c13.462 0 24.413-10.952 24.413-24.413v-5.09h59.161c.243 2.733.309 5.586.344 8.359v32.328c0 18.893-6.116 37.655-18.14 53.159-16.928 21.336-42.528 34.059-71.115 32.283-.144-.009-.288-.021-.432-.03-12.26-.827-24.091-4.336-34.744-10.266-.007-.004-.013-.01-.021-.014-2.299-1.282-4.532-2.679-6.7-4.173h34.1c5.86 0 10.629-4.796 10.629-10.691v-4.369c.784.068 1.572.112 2.368.112 14.739 0 26.73-11.991 26.73-26.731 0-4.142-3.357-7.5-7.5-7.5s-7.5 3.358-7.5 7.5c0 6.468-5.263 11.731-11.73 11.731-.806 0-1.596-.086-2.368-.244v-11.285c0-5.896-4.769-10.692-10.629-10.692h-44.168c-1.989-4.204-6.165-6.741-10.55-6.741h-15.485c-.548-3.972-.847-7.968-.847-12.047 0-35.217-.131-35.169.349-40.687h59.424v5.09c-.001 13.459 10.95 24.411 24.411 24.411zm88.301 135.206-33.441 100.881h-34.696l9.273-10.686c5.308-6.115 5.308-15.339 0-21.455l-3.392-3.908c27.121-10.093 46.506-35.296 49.399-64.842h12.203c.224.003.444.006.654.01zm-89.185 100.536c-.009-.01-.018-.02-.033-.037-18.933-21.531-18.149-20.631-17.678-21.631l.021-.047c.799-1.029 4.235-4.929 11.349-13.129 1.755-2.021 2.299-4.825 1.428-7.356s-3.025-4.406-5.652-4.92c-26.182-5.119-45.797-26.995-48.951-53.426h14.11c3.631 22.646 23.038 40.015 46.284 40.015s42.655-17.367 46.285-40.015h14.092c-3.222 26.542-22.918 48.438-49.148 53.466-2.634.505-4.798 2.377-5.675 4.912-.878 2.535-.335 5.345 1.423 7.37l11.139 12.834c1.107 1.275.894.762-17.485 21.941-.21.241-.463.365-.752.368-.307.017-.544-.113-.757-.345zm32.777-129.278v21.128c0 .024-.004.047-.004.071-.078 17.947-14.387 32.547-31.895 32.547-17.509 0-31.816-14.601-31.894-32.547 0-.03-.004-.059-.005-.089v-21.026c20.625 7.049 43.441 6.95 63.798-.084zm-89.103 12.472c.685-2.936 1.064-5.974 1.064-9.077v-1.355c.139-3.956.123-8.571.081-14.207 2.959 2.057 6.018 3.936 9.16 5.643v20.255h-10.584c.1-.413.192-.833.279-1.259zm172.361-123.822c0 10.517-6.91 19.516-16.45 22.626.09-1.375.216-4.42.216-6.557 0-6.293.012-11.562.021-16.027.015-6.982.026-12.065-.021-16.089v-.88c0-1.377-.036-3.222-.213-6.422 10.738 3.419 16.446 13.209 16.446 22.525v.824zm-171.209 72.028v-22.17h38.551v22.17zm-73.208-43.911v-19.754c1.354 6.247 4.197 11.893 8.172 16.577-.71.984-1.388 2.041-2.024 3.178h-6.148zm14.104-28.941c0-9.289 5.613-19.048 16.177-22.495-.101 1.616-.2 4.325-.2 6.392v32.998c0 2.378.131 5.296.202 6.425-4.311-1.406-6.623-3.489-7.623-4.196-5.611-4.644-8.555-11.587-8.555-18.299v-.825zm-32.598 167.629-48.937 49.284v-66.359c10.722-5.763 18.228-16.378 20.053-28.793 1.149-7.777.826-.584.826-32.733v-1.177h7.178v27.717c0 12.475 5.614 23.959 15.405 31.509 1.731 1.335 3.562 2.516 5.475 3.533zm-80.031-94.777c2.006-3.088 3.227-6.947 3.227-10.925v-11.245h9.374c0 9.786-.243 12.403.483 15.67-1.698 1.507-3.61 4.327-4.741 6.5zm59.151-22.17v22.17h-10.403c2.13-3.29 3.226-7.182 3.226-10.925v-11.245zm-22.177-15.326v26.572c0 3.87-3.986 6.141-7.046 4.247-1.457-.904-2.327-2.491-2.327-4.247 0-14.84 0-11.029 0-26.572zm-33.747-31.806c0-2.385 1.864-4.391 4.326-4.573.078-.007.158-.008.193-.009.09-.002.18-.005.271-.01 2.528.004 4.584 2.063 4.584 4.591v32.132h-9.374c0-11.92 0-19.929 0-32.131zm-15 31.806v26.572c0 2.72-2.103 4.934-4.687 4.934s-4.687-2.213-4.687-4.934c0-14.84 0-11.029 0-26.572zm-33.747-31.806c0-2.385 1.864-4.391 4.326-4.573.078-.007.158-.008.193-.009.09-.002.18-.005.271-.01 2.528.004 4.584 2.063 4.584 4.591v32.132h-9.374zm-50.98 47.132h60.354v11.245c0 3.695 1.075 7.612 3.227 10.925-7.511 0-56.561 0-63.58 0v-22.17zm66.918 88.028c-9.533-3.459-15.938-12.759-15.938-23.141v-27.717h50.797c.004.052.005.104.009.157.3 3.755 1.324 7.339 2.993 10.593-8.501 5.76-13.893 15.474-13.893 26.185 0 4.142 3.357 7.5 7.5 7.5s7.5-3.358 7.5-7.5c0-7.481 5.003-14.035 12.195-16.021 6.023-1.357 7.907-9.026 3.216-13.025-4.589-3.911-5.941-10.418-3.158-15.922l15.337 13.072c.023 26.657.273 20.281-.668 26.69-1.297 8.82-7.192 16.153-15.387 19.138-3.414 1.244-5.434 4.749-4.826 8.306v94.771h-40.736v-96.037c0-3.155-1.975-5.973-4.941-7.049zm60.677 99.493 48.937-49.284v52.878h-48.937zm63.936-67.482v-24.961c0-3.156-1.976-5.974-4.941-7.05-2.282-.828-4.427-2.009-6.374-3.51-6.078-4.688-9.564-11.842-9.564-19.63 0-10.919 0-100.742 0-111.677 0-2.721 2.103-4.934 4.687-4.934 2.585 0 4.688 2.213 4.688 4.934v32.549c0 4.142 3.357 7.5 7.5 7.5h65.62v70.141c-.215 5.764-.703 10.027-4.113 15.21-2.871 4.347-7.069 7.692-11.826 9.418-2.966 1.077-4.941 3.895-4.941 7.05v96.036h-40.734v-71.076zm55.735-20.11c.379-.202 1.874-1.066 2.755-1.633 5.275 25.9 23.44 47.474 47.989 56.689-4.925 5.672-5.017 5.868-5.843 7.637l-.045.096c-3.056 6.497-1.853 12.898 3.577 19.027l.206.234c1.577 1.818 4.776 5.505 7.927 9.135h-56.567v-91.185zm173.156-69.641c.188 21.419 16.28 22.49 16.403 36.713.051 5.742-1.903 8.625-4.967 12.264-7.986-3.905-13.967-4.041-19.915-4.041-4.423-.057-10.922-.046-21.063-.028-5.412.01-11.896.021-19.697.026v-20.371c25.465-13.961 43.455-38.712 49.55-66.254 3.87-.517 7.728-1.618 11.396-3.347.003-.001.005-.002.008-.004.381-.18.757-.37 1.132-.561.131-.067.264-.127.394-.196 1.559 2.354 2.483 4.909 2.517 8.784.125 14.137-15.944 15.652-15.758 37.015zm-186.6-119.763h-13.8v-29.57h59.75c4.652 0 8.171-4.193 7.394-8.757-1.58-9.293 2.27-18.615 10.298-24.934.119-.094.235-.191.349-.292 11.723-10.436 16.067-19.02 26.168-35.635.096-.158.201-.236.305-.236.035 0 .07.022.105.04.017.009.034.007.051.019.052.039.102.098.15.177 10.033 16.499 14.41 25.167 26.168 35.635.113.101.229.198.349.292 6.771 5.329 10.654 12.926 10.654 20.842 0 1.322-.12 2.698-.356 4.092-.778 4.579 2.754 8.756 7.394 8.756h59.749v29.57h-14.064-180.664zm230.559-54.279c-7.484 6.692-17.319 11.087-34.901 9.499-.004 0-.008-.001-.013-.002-25.972-2.339-41.848-30.225-31.821-55.136 3.265-7.474 7.748-12.485 18.229-28.699 4.655-7.17 7.43-11.945 12.446-20.351.076-.128.132-.263.2-.394 1.934-3.22 3.448-6.047 7.527-6.047 2.396 0 4.669 1.316 5.934 3.436v.001c18.972 31.783 17.463 27.916 29.442 46.014 10.231 16.903 7.082 39.048-7.043 51.679z"/><path d="m459.757 88.399c-2.908-4.872-9.969-4.878-12.88-.003-15.52 25.982-21.25 27.89-21.25 40.628 0 14.426 10.53 25.643 24.49 26.089 9.152.295 15.68-.456 22.324-6.398 5.441-4.865 8.563-12.042 8.563-19.691 0-12.782-5.947-14.975-21.247-40.625zm2.686 49.135c-2.243 2.007-3.874 2.847-11.842 2.587-5.779-.185-9.974-4.852-9.974-11.097 0-5.537 1.956-5.994 12.688-22.577 10.741 16.588 12.689 17.041 12.689 22.577 0 3.385-1.297 6.486-3.561 8.51z"/><path d="m341.433 148.943c-10.982 0-19.585 10.362-19.585 23.591s8.603 23.591 19.585 23.591 19.585-10.362 19.585-23.591-8.602-23.591-19.585-23.591zm0 32.182c-1.825 0-4.585-3.426-4.585-8.591s2.76-8.591 4.585-8.591 4.585 3.426 4.585 8.591-2.76 8.591-4.585 8.591z"/><path d="m385.758 282.161c4.143 0 7.5-3.358 7.5-7.5v-16.675c0-4.142-3.357-7.5-7.5-7.5s-7.5 3.358-7.5 7.5v16.675c0 4.142 3.358 7.5 7.5 7.5z"/><path d="m297.36 250.486c-4.143 0-7.5 3.358-7.5 7.5v16.675c0 4.142 3.357 7.5 7.5 7.5s7.5-3.358 7.5-7.5v-16.675c0-4.142-3.358-7.5-7.5-7.5z"/></g></g></svg>