<svg id="Layer_1" enable-background="new 0 0 512.003 512.003" height="512" viewBox="0 0 512.003 512.003" width="512" xmlns="http://www.w3.org/2000/svg"><g><g clip-rule="evenodd" fill-rule="evenodd"><g fill="#8690af"><path d="m126.515 388.612 84.266-20.5c10.873 18.833 30.97 28.184 45.23 32.005 14.26-3.821 34.357-13.172 45.23-32.005l84.266 20.5c-3.074 2.681-6.678 6.716-10.29 11.898 13.036 6.772 22.075 12.915 28.265 19.634 28.401-34.76 4.443-60.286-16.678-69.338-15.75-6.75-20.999-27.851-13-44.1 7.865-15.976.024-38.235-17.792-46.703h-.503c-5.059 50.351-47.872 90-99.498 90s-94.439-39.649-99.498-90h-.502c-17.816 8.468-25.657 30.727-17.793 46.703 8 16.25 2.75 37.35-13 44.1-21.121 9.052-45.079 34.578-16.678 69.338 6.189-6.721 15.228-12.863 28.265-19.636-3.612-5.181-7.216-9.216-10.29-11.896z"/><path d="m156.011 220.003c27.275 0 37.563-23.941 37.563-44.371-12.32 2.675-24.992 7.113-37.563 14.371z"/><path d="m318.449 175.631c0 20.431 10.288 44.371 37.563 44.371v-30.001c-12.571-7.256-25.243-11.695-37.563-14.37z"/></g><path d="m318.449 175.631c12.32 2.675 24.993 7.113 37.563 14.371v-45.907c-18.543-8.538-44.415-14.892-62.434-15.675-2.309-7.823-7.549-15.931-14.459-22.603-6.559-6.334-14.622-11.373-23.107-13.647-8.485 2.273-16.548 7.313-23.107 13.647-6.909 6.672-12.15 14.78-14.459 22.603-18.019.783-43.891 7.137-62.434 15.675v45.907c12.57-7.258 25.243-11.696 37.562-14.371 14.057-3.052 27.656-3.809 40.121-3.838 5.25 7.5 12.595 11.895 22.316 14.5 9.721-2.605 17.066-7 22.316-14.5 12.466.03 26.065.786 40.122 3.838z" fill="#ffc144"/><path d="m293.578 128.421c18.019.783 43.891 7.137 62.434 15.675 0-58.575-48.02-92.15-73.184-98.925 0-3.507-.334-8.131-1.805-12.919-2.727-8.873-9.359-18.311-25.01-22.253-15.651 3.942-22.284 13.38-25.01 22.253-1.471 4.788-1.805 9.412-1.805 12.919-25.164 6.775-73.184 39.85-73.184 98.925 18.543-8.538 44.415-14.892 62.434-15.675 2.309-7.823 7.549-15.931 14.459-22.603-15.374-26.628-.989-49.748 23.107-55.817 24.096 6.069 38.481 29.189 23.107 55.817 6.907 6.672 12.148 14.78 14.457 22.603z" fill="#ffda8f"/><path d="m279.119 105.818c15.374-26.628.989-49.748-23.107-55.817-24.096 6.069-38.481 29.189-23.107 55.817 6.559-6.334 14.622-11.373 23.107-13.647 8.484 2.273 16.547 7.313 23.107 13.647z" fill="#ffcd69"/><path d="m156.011 144.096c0-59.075 48.02-92.15 73.184-98.925 0-3.507.334-8.131 1.805-12.919-66.583 12.09-114.989 70.075-114.989 137.748 0 25.497 6.963 50.509 20.137 72.339-.09-.766-.137-1.546-.137-2.336 0-11 8.999-20 20-20v-30.001z" fill="#ffcd69"/><path d="m356.011 144.096v45.907 30.001c11 0 20 8.999 20 20 0 .79-.047 1.569-.137 2.336 13.174-21.829 20.137-46.842 20.137-72.338 0-67.673-48.406-125.658-114.99-137.748 1.472 4.788 1.805 9.412 1.805 12.919 25.165 6.773 73.185 40.348 73.185 98.923z" fill="#ffcd69"/><path d="m316.094 329.805c21.691-16.396 36.561-41.396 39.415-69.802h.503c10.211 0 18.697-7.754 19.863-17.664.09-.766.137-1.546.137-2.336 0-11-9-20-20-20-27.275 0-37.563-23.941-37.563-44.371-14.057-3.052-27.656-3.809-40.121-3.838-5.25 7.5-12.595 11.895-22.316 14.5-9.721-2.605-17.066-7-22.316-14.5-12.465.029-26.064.785-40.121 3.838 0 20.431-10.288 44.371-37.563 44.371-11 0-20 9-20 20 0 .79.046 1.569.137 2.336 1.166 9.91 9.653 17.664 19.863 17.664h.502c2.843 28.298 17.612 53.216 39.168 69.615 16.798 12.779 37.719 20.385 60.33 20.385 22.499-.001 43.326-7.532 60.082-20.198z" fill="#80b6ff"/><path d="m301.244 368.113v-28.995c-13.602 6.955-28.981 10.885-45.233 10.885-16.251 0-31.629-3.929-45.231-10.884v24.81l.001 4.183c10.873 18.833 30.97 28.184 45.23 32.005 14.26-3.822 34.357-13.173 45.233-32.004z" fill="#80b6ff"/><path d="m156.014 481.627v-19.626c0-25.977-9.635-47.76-19.208-61.491-13.037 6.772-22.075 12.915-28.265 19.636-9.939 10.793-12.529 23.077-12.529 41.855v40.001h60.002z" fill="#80b6ff"/><path d="m136.805 400.51c9.573 13.731 19.208 35.514 19.208 61.491v19.626 20.376h54.768v-63.337-70.552l-84.266 20.5c3.074 2.68 6.678 6.714 10.29 11.896z" fill="#ff5d7d"/><path d="m210.781 368.113v70.552c5.163 9.242 17.247 20.704 45.23 28.202 27.983-7.498 40.067-18.96 45.23-28.202v-70.552c-10.873 18.833-30.971 28.184-45.23 32.005-14.259-3.822-34.357-13.173-45.23-32.005z" fill="#ffc144"/><path d="m301.242 368.113v70.552 63.337h54.768v-10-30.001c0-25.976 9.635-47.759 19.208-61.49 3.613-5.182 7.217-9.217 10.291-11.898z" fill="#ff5d7d"/><path d="m375.217 400.511c-9.573 13.731-19.208 35.514-19.208 61.49v19.626 20.376h60.002v-40.001c0-18.778-2.591-31.062-12.53-41.854-6.189-6.722-15.227-12.865-28.264-19.637z" fill="#80b6ff"/><path d="m301.242 502.002v-63.337c-5.163 9.242-17.247 20.704-45.23 28.202-27.983-7.498-40.067-18.96-45.23-28.202v63.337z" fill="#80b6ff"/></g><g><path d="m256.121 149.049c13.268-.529 13.258-19.476 0-20h-.007c-13.269.53-13.251 19.478.007 20z"/><path d="m216.014 250.004c13.268-.529 13.258-19.476 0-20h-.007c-13.269.53-13.252 19.477.007 20z"/><path d="m296.016 250.004c13.268-.529 13.258-19.476 0-20h-.008c-13.268.53-13.249 19.478.008 20z"/><path d="m239.876 289.967c9.774 5.74 22.497 5.74 32.271 0 4.783-2.761 6.422-8.877 3.66-13.66-2.759-4.783-8.873-6.421-13.66-3.661-3.725 2.151-8.545 2.152-12.271 0-4.784-2.762-10.899-1.122-13.66 3.661-2.762 4.782-1.123 10.898 3.66 13.66z"/><path d="m416.067 419.97c11.655-17.341 11.498-31.957 9.073-41.496-3.95-15.542-16.809-29.32-34.396-36.858-5.268-2.258-7.876-6.794-9.136-10.202-2.369-6.407-1.933-13.992 1.168-20.291 4.841-9.833 5.379-21.903 1.478-33.117-1.96-5.632-4.944-10.803-8.714-15.247 5.021-4.315 8.604-10.26 9.919-17.005.108-.163.212-.331.311-.502 4.961-8.554 9.046-17.556 12.215-26.857l4.563 1.223c5.191 1.435 10.838-1.693 12.247-7.071 1.43-5.334-1.736-10.818-7.071-12.247l-4.563-1.223c1.243-6.288 2.086-12.66 2.516-19.076h4.72c13.268-.529 13.258-19.476 0-20h-4.722c-.432-6.421-1.278-12.792-2.524-19.073l4.573-1.225c12.681-3.945 7.763-22.243-5.176-19.318l-4.581 1.227c-2.07-6.071-4.527-12.01-7.357-17.774l4.103-2.369c4.783-2.761 6.422-8.877 3.66-13.66-2.761-4.782-8.877-6.422-13.66-3.66l-4.091 2.362c-2.679-4.004-5.557-7.887-8.629-11.632-1.008-1.229-2.035-2.441-3.081-3.635l3.337-3.337c3.905-3.905 3.905-10.237 0-14.143-3.906-3.905-10.236-3.905-14.143 0l-3.346 3.346c-4.84-4.228-9.942-8.136-15.268-11.703l2.371-4.106c2.762-4.783 1.123-10.899-3.66-13.66-4.785-2.763-10.899-1.123-13.66 3.66l-2.37 4.105c-5.75-2.829-11.685-5.295-17.769-7.373l1.224-4.566c1.43-5.334-1.735-10.818-7.07-12.248-5.338-1.431-10.818 1.736-12.248 7.07l-.283 1.055c-5.812-9.322-15.197-15.923-27.574-19.04-1.604-.403-3.281-.403-4.885 0-12.377 3.117-21.763 9.718-27.574 19.04l-.282-1.054c-1.43-5.334-6.909-8.502-12.247-7.071-5.335 1.429-8.501 6.913-7.071 12.247l1.224 4.567c-6.084 2.079-12.019 4.544-17.769 7.373l-2.37-4.105c-2.761-4.783-8.877-6.422-13.66-3.66-4.783 2.761-6.422 8.877-3.66 13.66l2.371 4.106c-5.327 3.567-10.428 7.475-15.268 11.703l-3.346-3.346c-3.906-3.905-10.236-3.905-14.143 0-3.905 3.905-3.905 10.237 0 14.143l3.337 3.337c-1.045 1.194-2.072 2.406-3.081 3.635-3.072 3.745-5.95 7.628-8.629 11.632l-4.091-2.362c-4.785-2.763-10.899-1.122-13.66 3.66-2.762 4.783-1.123 10.899 3.66 13.66l4.103 2.369c-2.83 5.764-5.287 11.703-7.357 17.774l-4.582-1.228c-5.339-1.428-10.818 1.737-12.247 7.072-1.43 5.335 1.736 10.818 7.071 12.247l4.573 1.225c-1.245 6.281-2.091 12.653-2.524 19.073h-4.722c-13.268.529-13.258 19.476 0 20h4.72c.43 6.416 1.272 12.788 2.516 19.076l-4.564 1.223c-5.335 1.429-8.501 6.912-7.071 12.247 1.41 5.379 7.056 8.505 12.247 7.072l4.564-1.223c3.169 9.302 7.254 18.304 12.215 26.858.099.172.203.339.311.502 1.315 6.745 4.897 12.689 9.917 17.004-3.771 4.444-6.754 9.615-8.714 15.248-3.901 11.214-3.362 23.284 1.479 33.116 3.101 6.298 3.537 13.884 1.168 20.291-1.26 3.408-3.868 7.944-9.136 10.202-32.01 14.607-47.495 44.572-25.323 78.353-.37.552-.729 1.108-1.077 1.671-7.794 12.609-8.868 26.85-8.868 40.361v40.001c0 5.523 4.478 10 10 10h114.77c5.373.106 10.106-4.628 10-10l-.001-39.227c8.659 5.648 19.561 10.246 32.644 13.751 1.695.455 3.48.454 5.176 0 13.083-3.506 23.985-8.103 32.644-13.751l-.001 39.227c0 2.652 1.054 5.196 2.929 7.071 1.876 1.875 4.419 2.929 7.071 2.929h114.77c5.522 0 10-4.477 10-10v-40.003c0-13.52-1.076-27.769-8.883-40.384-.341-.554-.695-1.102-1.06-1.646zm-33.202-59.972c9.192 3.939 20.032 12.156 22.891 23.402 1.708 6.719.36 14.006-4.005 21.74-3.279-2.522-6.994-5.021-11.217-7.554.528-.52 1.045-1 1.547-1.438 2.815-2.456 4.027-6.277 3.142-9.907s-3.721-6.463-7.351-7.347l-76.626-18.642v-15.214c24.863-14.385 43.826-39.177 51.04-66.695 1.265 1.918 2.305 4.011 3.078 6.233 2.154 6.193 1.961 12.648-.531 17.711-5.478 11.127-6.219 24.607-1.983 36.062 3.704 10.017 10.812 17.705 20.015 21.649zm-226.351-109.995h-.325c-.093-.002-.185-.002-.278-.001-13.192-.67-13.102-19.459.101-19.998 29.14 0 44.22-22.264 47.064-45.981 9.186-1.495 17.937-2.029 25.867-2.179 6.069 6.699 14.131 11.336 24.482 14.11 1.695.455 3.479.454 5.177 0 10.352-2.774 18.412-7.411 24.481-14.11 7.932.151 16.681.685 25.866 2.18 2.842 23.735 17.909 45.98 47.064 45.98 13.207.539 13.292 19.341.091 19.998-.087-.001-.174 0-.261.001h-.332c-5.136 0-9.437 3.89-9.95 9-14.708 107.414-164.43 107.333-179.096 0-.515-5.11-4.816-9-9.951-9zm135.484-182.774c-1.685-3.887-3.936-7.481-6.673-10.718 26.499 10.924 53.089 35.905 59.434 72.366-14.425-4.968-30.435-8.611-44.078-9.963-2.366-5.252-5.61-10.295-9.491-14.895 5.385-12.621 5.706-25.49.808-36.79zm-17.132 22.54c-5.15-3.252-10.657-5.753-16.266-7.256-1.695-.454-3.48-.454-5.176 0-5.609 1.503-11.116 4.004-16.266 7.257-1.105-5.192-.713-10.112 1.203-14.552 2.938-6.808 9.297-12.115 17.651-14.818 8.339 2.698 14.693 7.993 17.637 14.784 1.927 4.447 2.325 9.379 1.217 14.585zm-48.146-33.284c-2.762 3.262-5.031 6.887-6.723 10.81-4.871 11.287-4.538 24.128.838 36.725-3.881 4.599-7.126 9.642-9.492 14.894-13.66 1.353-29.681 5-44.113 9.975 6.669-40.788 39.228-64.734 59.49-72.404zm-7.84 81.927c4.269-.186 7.947-3.062 9.156-7.161 3.078-10.43 14.424-23.792 27.976-28.613 13.552 4.822 24.897 18.184 27.976 28.613 1.209 4.098 4.888 6.975 9.156 7.161 15.217.661 36.309 5.603 52.868 12.266v23.196c-24.744-10.473-48.738-12.036-67.66-12.08h-.023c-3.263 0-6.321 1.592-8.192 4.265-3.222 4.603-7.639 7.688-14.124 9.809-6.484-2.121-10.902-5.207-14.124-9.809-1.876-2.68-4.961-4.315-8.216-4.265-18.913.043-42.911 1.604-67.661 12.08v-23.196c16.561-6.665 37.635-11.604 52.868-12.266zm127.132 57.528v12.329c-9.106-3.511-13.488-11.74-15.596-18.936 5.176 1.767 10.395 3.94 15.596 6.607zm-180.001 0c5.236-2.686 10.49-4.87 15.701-6.644-2.08 7.353-6.469 15.562-15.701 19.024zm54.766 158.237c22.407 7.742 48.062 7.742 70.469 0v11.106c-9.692 14.826-26.255 21.672-35.234 24.428-8.98-2.756-25.544-9.603-35.235-24.429zm165.235-184.177c0 16.579-3.187 32.989-9.31 48.299-3.031-2.891-6.664-5.155-10.69-6.583v-67.621c0-35.61-16.193-60.787-29.777-75.637-.748-.817-1.501-1.619-2.259-2.405 31.854 23.989 52.036 62.095 52.036 103.947zm-130-149.616c8.086 2.208 17.31 9.245 16.862 25.752-4.35-2.541-9.195-4.516-14.42-5.832-1.604-.403-3.281-.403-4.885 0-5.226 1.316-10.072 3.292-14.421 5.832-.446-16.511 8.775-23.541 16.864-25.752zm-78.597 46.151c-.541.567-1.079 1.141-1.614 1.723-13.59 14.801-29.79 39.972-29.79 75.838l-.001 67.621c-4.026 1.427-7.659 3.692-10.69 6.582-22.298-52.898-3.023-118.757 42.095-151.764zm-71.171 316.96c2.82-11.292 13.686-19.542 22.914-23.497 9.203-3.944 16.312-11.632 20.016-21.647 4.235-11.454 3.494-24.935-1.983-36.062-3.572-6.879-2.133-17.14 2.547-23.945 7.212 27.517 26.178 52.313 51.039 66.695v15.214l-76.626 18.641c-7.771 1.756-10.297 12.117-4.209 17.253.501.438 1.018.917 1.546 1.437-4.223 2.533-7.938 5.032-11.217 7.555-4.344-7.696-5.7-14.949-4.027-21.644zm-.232 108.507v-30.002c0-24.173 3.766-34.555 27.311-48.193 6.848 12.327 12.691 29.208 12.691 48.193v30.001h-40.002zm60.002 0v-30.002c0-29.346-10.876-52.833-21.257-67.534l56.021-13.629.004 111.165zm89.998-35.513c-21.131-6.082-30.81-14.246-35.232-20.668l-.001-41.83c12.419 9.446 25.77 13.943 32.646 15.785 1.695.455 3.48.455 5.176 0 6.876-1.842 20.226-6.339 32.645-15.785l-.001 41.831c-4.43 6.429-14.115 14.587-35.233 20.667zm55.23 35.513.003-111.165 56.021 13.629c-10.381 14.7-21.256 38.187-21.256 67.534v30.001h-34.768zm94.77 0h-40.002v-30.002c0-18.985 5.842-35.866 12.69-48.192 23.544 13.638 27.312 24.027 27.312 48.192z"/><path d="m256.012 492.002h-.008c-5.522 0-9.996 4.477-9.996 10 .528 13.263 19.479 13.263 20.004 0 0-5.523-4.478-10-10-10z"/></g></g></svg>